# xmcd
#
# Track frame offsets:
#	150
#	16100
#	33160
#	43955
#	57833
#	72279
#	88675
#	105713
#	123854
#	142025
#	156896
#	173119
#	194574
#	212731
#	231435
#	244409
#	257338
#	274422
#	285913
#	301079
#	318187
#
# Disc length: 4455 seconds
#
# Revision: 0
# Processed by: cddbd v1.5.2PL0 Copyright (c) Steve Scherf et al.
# Submitted via: EZCDAudioConverter 7.1.0.1
#
DISCID=2a116515
DTITLE=Nu Urban Traxx Volume 255 US
DYEAR=2018
DGENRE=blues
TTITLE0=Bad Bunny ft. Drake - MIA
TTITLE1=Kodak Black ft. Travis Scott - ZEZE
TTITLE2=Future and Juice WRLD - Fine China
TTITLE3=Cardi B - Money
TTITLE4=Pardison Fontaine ft. Cardi B - Backin' It Up
TTITLE5=Ella Mai - Trip
TTITLE6=Quavo ft. 21 Savage - Pass Out
TTITLE7=Davido - Fall
TTITLE8=6lack ft. J. Cole - Pretty Little Fears
TTITLE9=Tyga ft. Nicki Minaj - Dip [Remix]
TTITLE10=Lil Duval ft. Snoop Dogg and Ball Greezy - Smile (Best Life) [Super S
TTITLE10=qeaky Clean Edit]
TTITLE11=YG ft. Quavo - Slay
TTITLE12=Juice WRLD - Lucid Dreams
TTITLE13=Justine Skye ft. Arin Ray - Build
TTITLE14=Takeoff - Last Memory
TTITLE15=DreamDoll - Everything Nice
TTITLE16=Russ - Missin' You Crazy
TTITLE17=City Girls - Twerk
TTITLE18=YoungBoy NBA ft. Kevin Gates and Quando Rondo - I Am Who They Say I A
TTITLE18=m
TTITLE19=Mariah Carey - With You
TTITLE20=Plies ft. Kevin Gates - All Thee Above
EXTD=
EXTT0=
EXTT1=
EXTT2=
EXTT3=
EXTT4=
EXTT5=
EXTT6=
EXTT7=
EXTT8=
EXTT9=
EXTT10=
EXTT11=
EXTT12=
EXTT13=
EXTT14=
EXTT15=
EXTT16=
EXTT17=
EXTT18=
EXTT19=
EXTT20=
PLAYORDER=
